<svg width="21" height="21" viewBox="0 0 21 21" fill="none" xmlns="http://www.w3.org/2000/svg">
<path d="M19.1438 4.22772V14.1234C19.1438 14.9307 18.4863 15.6715 17.679 15.7713L17.421 15.8046C16.0561 15.9877 14.1336 16.5537 12.5855 17.2028C12.0445 17.4276 11.4453 17.0197 11.4453 16.4288V4.85193C11.4453 4.54398 11.6201 4.26101 11.8947 4.1112C13.4178 3.28725 15.7232 2.55486 17.2879 2.42169H17.3378C18.3365 2.42169 19.1438 3.229 19.1438 4.22772Z" fill="#69A1EF"/>
<path d="M9.74764 4.1112C8.22459 3.28725 5.91919 2.55486 4.35452 2.42169H4.29626C3.29754 2.42169 2.49023 3.229 2.49023 4.22772V14.1234C2.49023 14.9307 3.14773 15.6715 3.95503 15.7713L4.21304 15.8046C5.57796 15.9877 7.50051 16.5537 9.04854 17.2028C9.58951 17.4276 10.1887 17.0197 10.1887 16.4288V4.85193C10.1887 4.53566 10.0223 4.26101 9.74764 4.1112ZM4.99537 6.63299H6.86798C7.20922 6.63299 7.49219 6.91596 7.49219 7.25719C7.49219 7.60674 7.20922 7.88139 6.86798 7.88139H4.99537C4.65414 7.88139 4.37117 7.60674 4.37117 7.25719C4.37117 6.91596 4.65414 6.63299 4.99537 6.63299ZM7.49219 10.3782H4.99537C4.65414 10.3782 4.37117 10.1036 4.37117 9.754C4.37117 9.41277 4.65414 9.1298 4.99537 9.1298H7.49219C7.83342 9.1298 8.11639 9.41277 8.11639 9.754C8.11639 10.1036 7.83342 10.3782 7.49219 10.3782Z" fill="#69A1EF"/>
</svg>
