<svg width="49" height="49" viewBox="0 0 49 49" fill="none" xmlns="http://www.w3.org/2000/svg">
<path opacity="0.4" d="M24.6083 11.0227V42.9103C24.2701 42.9103 23.9121 42.8507 23.6336 42.6915L23.554 42.6517C19.7346 40.563 13.0707 38.3749 8.75399 37.798L8.17711 37.7184C6.26743 37.4797 4.71582 35.6894 4.71582 33.7797V9.74958C4.71582 7.38238 6.64539 5.59205 9.01259 5.79098C13.19 6.12915 19.5158 8.23775 23.0567 10.4458L23.554 10.7442C23.8524 10.9232 24.2303 11.0227 24.6083 11.0227Z" fill="#69A1EF"/>
<path d="M44.5009 9.76902V33.7792C44.5009 35.6889 42.9493 37.4792 41.0396 37.7179L40.3831 37.7975C36.0466 38.3744 29.3627 40.5825 25.5433 42.6911C25.2847 42.8502 24.9665 42.9099 24.6084 42.9099V11.0222C24.9864 11.0222 25.3643 10.9228 25.6627 10.7437L26.0009 10.5249C29.5417 8.29697 35.8874 6.16848 40.0649 5.81042H40.1842C42.5514 5.61149 44.5009 7.38192 44.5009 9.76902Z" fill="#69A1EF"/>
<path d="M16.1543 18.8603H11.6785C10.8629 18.8603 10.1865 18.184 10.1865 17.3684C10.1865 16.5528 10.8629 15.8765 11.6785 15.8765H16.1543C16.9699 15.8765 17.6462 16.5528 17.6462 17.3684C17.6462 18.184 16.9699 18.8603 16.1543 18.8603Z" fill="#69A1EF"/>
<path d="M17.6462 24.8281H11.6785C10.8629 24.8281 10.1865 24.1518 10.1865 23.3362C10.1865 22.5206 10.8629 21.8442 11.6785 21.8442H17.6462C18.4618 21.8442 19.1381 22.5206 19.1381 23.3362C19.1381 24.1518 18.4618 24.8281 17.6462 24.8281Z" fill="#69A1EF"/>
</svg>
