<svg width="49" height="49" viewBox="0 0 49 49" fill="none" xmlns="http://www.w3.org/2000/svg">
<path opacity="0.4" d="M41.2586 14.404V30.318H13.1108C9.98764 30.318 7.44141 32.8642 7.44141 35.9873V14.404C7.44141 6.44701 9.43065 4.45776 17.3876 4.45776H31.3124C39.2694 4.45776 41.2586 6.44701 41.2586 14.404Z" fill="#69A1EF"/>
<path d="M41.2586 30.3179V37.2802C41.2586 41.1195 38.1355 44.2426 34.2962 44.2426H14.4038C10.5645 44.2426 7.44141 41.1195 7.44141 37.2802V35.9872C7.44141 32.8641 9.98764 30.3179 13.1108 30.3179H41.2586Z" fill="#69A1EF"/>
<path d="M32.3073 15.896H16.3933C15.5777 15.896 14.9014 15.2196 14.9014 14.404C14.9014 13.5885 15.5777 12.9121 16.3933 12.9121H32.3073C33.1229 12.9121 33.7992 13.5885 33.7992 14.404C33.7992 15.2196 33.1229 15.896 32.3073 15.896Z" fill="#69A1EF"/>
<path d="M26.3395 22.8584H16.3933C15.5777 22.8584 14.9014 22.182 14.9014 21.3664C14.9014 20.5509 15.5777 19.8745 16.3933 19.8745H26.3395C27.1551 19.8745 27.8315 20.5509 27.8315 21.3664C27.8315 22.182 27.1551 22.8584 26.3395 22.8584Z" fill="#69A1EF"/>
</svg>
