<svg width="49" height="49" viewBox="0 0 49 49" fill="none" xmlns="http://www.w3.org/2000/svg">
<path d="M44.1514 8.3171C41.5455 14.8219 35.5976 23.316 29.9283 28.866C29.1127 23.7338 25.0148 19.7155 19.8428 18.9994C25.4127 13.3101 33.9664 7.28269 40.4912 4.65689C41.6449 4.21925 42.7987 4.55743 43.5148 5.27355C44.2707 6.02947 44.6288 7.16334 44.1514 8.3171Z" fill="#F7F9FC"/>
<path opacity="0.4" d="M29.9281 28.8659C28.9334 29.8407 27.9388 30.7358 26.984 31.4917L23.0652 34.6348C22.5679 34.9928 22.0705 35.2912 21.5136 35.5299C21.5136 35.152 21.4738 34.774 21.434 34.3761C21.2152 32.7251 20.4592 31.1536 19.1265 29.8208C17.7539 28.4681 16.1227 27.6923 14.4318 27.4735C14.034 27.4337 13.6162 27.4138 13.2383 27.4337C13.4571 26.817 13.7953 26.2401 14.213 25.7627L17.3162 21.8439C18.0523 20.9089 18.9076 19.9541 19.8426 18.9993C25.0146 19.7154 29.1125 23.7337 29.9281 28.8659Z" fill="white"/>
<path d="M21.5138 35.5293C21.5138 37.7175 20.6783 39.8062 19.0869 41.3777C17.8734 42.6111 16.2422 43.4465 14.253 43.6852L9.37934 44.2223C6.71375 44.5207 4.42612 42.2331 4.7245 39.5476L5.2616 34.6541C5.73902 30.2976 9.37934 27.5127 13.2385 27.4331C13.6164 27.4132 14.0342 27.4331 14.432 27.4729C16.1229 27.6917 17.7541 28.4675 19.1267 29.8202C20.4595 31.153 21.2154 32.7245 21.4342 34.3756C21.474 34.7734 21.5138 35.1514 21.5138 35.5293Z" fill="white"/>
</svg>
