<svg width="49" height="49" viewBox="0 0 49 49" fill="none" xmlns="http://www.w3.org/2000/svg">
<path opacity="0.4" d="M28.6216 6.20856L19.292 4.73652C11.5141 3.52308 7.91354 6.14888 6.68021 13.9268L5.20817 23.2564C4.41247 28.3489 5.24795 31.651 8.13236 33.6602C9.64419 34.7344 11.713 35.4505 14.3985 35.8682L23.7281 37.3403C31.506 38.5537 35.1066 35.9279 36.3399 28.15L37.792 18.8204C38.0307 17.2887 38.1302 15.9161 38.0506 14.7026C37.792 9.72953 34.8678 7.18329 28.6216 6.20856ZM17.3824 19.079C15.0549 19.079 13.1652 17.1892 13.1652 14.8817C13.1652 12.5543 15.0549 10.6645 17.3824 10.6645C19.6899 10.6645 21.5797 12.5543 21.5797 14.8817C21.5797 17.1892 19.6899 19.079 17.3824 19.079Z" fill="#69A1EF"/>
<path d="M41.77 27.2742L38.7861 36.2457C36.2996 43.7253 32.3211 45.7145 24.8415 43.228L15.87 40.2441C11.3544 38.7521 8.84797 36.6833 8.13184 33.6597C9.64366 34.7339 11.7125 35.45 14.398 35.8677L23.7275 37.3398C31.5055 38.5532 35.106 35.9274 36.3394 28.1495L37.7915 18.8199C38.0302 17.2882 38.1297 15.9156 38.0501 14.7021C42.8044 17.2285 43.8388 21.0478 41.77 27.2742Z" fill="#69A1EF"/>
<path d="M21.5805 14.8815C21.5805 17.189 19.6907 19.0788 17.3832 19.0788C15.0558 19.0788 13.166 17.189 13.166 14.8815C13.166 12.5541 15.0558 10.6643 17.3832 10.6643C19.6907 10.6643 21.5805 12.5541 21.5805 14.8815Z" fill="#69A1EF"/>
</svg>
