<svg width="21" height="21" viewBox="0 0 21 21" fill="none" xmlns="http://www.w3.org/2000/svg">
<path d="M18.3447 11.2435L17.579 10.4944L11.1289 16.9362L11.9029 17.7102C12.5521 18.3594 13.2262 18.684 13.892 18.684C14.5579 18.684 15.232 18.3594 15.8812 17.7102L18.3447 15.2467C19.668 13.9151 19.668 12.5751 18.3447 11.2435Z" fill="#69A1EF"/>
<path d="M9.73101 2.62954C8.42435 1.32287 7.0511 1.32287 5.74443 2.62954L3.27259 5.09306C1.97424 6.39973 1.97424 7.77298 3.27259 9.07964L4.03828 9.84533L10.4884 3.39523L9.73101 2.62954Z" fill="#69A1EF"/>
<path d="M18.9858 3.47029C17.8955 6.19182 15.407 9.74562 13.035 12.0677C12.6938 9.9204 10.9793 8.23921 8.81543 7.93959C11.1458 5.5593 14.7246 3.03751 17.4544 1.93891C17.9371 1.75582 18.4198 1.8973 18.7195 2.19692C19.0357 2.51318 19.1855 2.98758 18.9858 3.47029Z" fill="#69A1EF"/>
<path d="M12.3028 12.75C12.1363 12.8914 11.9698 13.0329 11.8034 13.1661L10.3136 14.3562C10.3136 14.3313 10.3053 14.298 10.3053 14.2647C10.1888 13.3742 9.77265 12.5502 9.09851 11.8761C8.41605 11.1936 7.56713 10.7775 6.63498 10.661C6.61002 10.661 6.57673 10.6526 6.55176 10.6526L7.75855 9.12958C7.87507 8.97977 7.99991 8.83829 8.13307 8.68848L8.69902 8.76338C10.4884 9.01306 11.9282 10.4196 12.2112 12.2007L12.3028 12.75Z" fill="#69A1EF"/>
<path d="M9.51485 14.8557C9.51485 15.7712 9.1653 16.6451 8.49948 17.3026C7.9918 17.8186 7.30933 18.1681 6.47706 18.268L4.438 18.4927C3.32275 18.6176 2.36564 17.6605 2.49048 16.5369L2.71519 14.4895C2.91494 12.6668 4.438 11.5016 6.0526 11.4684C6.21073 11.46 6.38551 11.4684 6.55197 11.485C7.2594 11.5765 7.94186 11.9011 8.51613 12.4671C9.07375 13.0247 9.39001 13.6822 9.48156 14.373C9.49821 14.5394 9.51485 14.6976 9.51485 14.8557Z" fill="#69A1EF"/>
</svg>
