<svg width="49" height="49" viewBox="0 0 49 49" fill="none" xmlns="http://www.w3.org/2000/svg">
<path d="M22.6469 36.0528H9.77148" stroke="#69A1EF" stroke-width="3" stroke-linecap="round" stroke-linejoin="round"/>
<path opacity="0.6" fill-rule="evenodd" clip-rule="evenodd" d="M30.7256 36.0544C30.7256 40.1161 32.0801 41.4688 36.1399 41.4688C40.1997 41.4688 41.5542 40.1161 41.5542 36.0544C41.5542 31.9928 40.1997 30.6401 36.1399 30.6401C32.0801 30.6401 30.7256 31.9928 30.7256 36.0544Z" stroke="#69A1EF" stroke-width="3" stroke-linecap="round" stroke-linejoin="round"/>
<path d="M28.6797 15.1883H41.5534" stroke="#69A1EF" stroke-width="3" stroke-linecap="round" stroke-linejoin="round"/>
<path opacity="0.6" fill-rule="evenodd" clip-rule="evenodd" d="M20.6009 15.1856C20.6009 11.1257 19.2464 9.77124 15.1866 9.77124C11.125 9.77124 9.77051 11.1257 9.77051 15.1856C9.77051 19.2472 11.125 20.5999 15.1866 20.5999C19.2464 20.5999 20.6009 19.2472 20.6009 15.1856Z" stroke="#69A1EF" stroke-width="3" stroke-linecap="round" stroke-linejoin="round"/>
</svg>
