<svg width="48" height="49" viewBox="0 0 48 49" fill="none" xmlns="http://www.w3.org/2000/svg">
<path d="M37.403 29.6616L29.1477 37.9169C28.8294 38.2352 28.531 38.8519 28.4514 39.2895L27.9939 42.4524C27.8348 43.5863 28.6305 44.4018 29.7643 44.2228L32.9272 43.7653C33.3649 43.7056 33.9815 43.3873 34.2998 43.0691L42.5552 34.8137C43.9676 33.4013 44.6439 31.7304 42.5552 29.6416C40.4864 27.5728 38.8353 28.2293 37.403 29.6616Z" fill="#69A1EF"/>
<path d="M36.2295 30.8354C36.9257 33.3419 38.8951 35.2913 41.4015 36.0074L36.2295 30.8354Z" fill="#69A1EF"/>
<path opacity="0.4" d="M4.1814 29.5818C4.1814 29.6415 4.1416 29.721 4.1416 29.7807C5.97171 33.4409 8.9556 36.4447 12.6158 38.2549C12.6755 38.2549 12.755 38.2151 12.8147 38.2151C12.1384 35.9076 11.6212 33.5404 11.2432 31.1732C8.85613 30.7753 6.48892 30.2581 4.1814 29.5818Z" fill="#69A1EF"/>
<path opacity="0.4" d="M38.0782 13.2701C36.2083 9.35126 33.0454 6.18838 29.1465 4.33838C29.8626 6.70558 30.4594 9.13247 30.8572 11.5594C33.2841 11.9572 35.711 12.5341 38.0782 13.2701Z" fill="#69A1EF"/>
<path opacity="0.4" d="M3.98242 13.2701C6.36952 12.554 8.79643 11.9573 11.2233 11.5594C11.6212 9.19222 12.1185 6.84491 12.7948 4.53738C12.7351 4.53738 12.6555 4.49756 12.5959 4.49756C8.85608 6.34756 5.81253 9.47068 3.98242 13.2701Z" fill="#69A1EF"/>
<path opacity="0.4" d="M27.6344 11.142C27.157 8.55595 26.5602 5.96996 25.7048 3.46351C25.6651 3.32426 25.6651 3.20492 25.6452 3.04579C24.1731 2.68772 22.6215 2.44897 21.0301 2.44897C19.4188 2.44897 17.8871 2.66783 16.3951 3.04579C16.3753 3.18503 16.3951 3.30437 16.3554 3.46351C15.5199 5.96996 14.9032 8.55595 14.4258 11.142C18.822 10.6646 23.2382 10.6646 27.6344 11.142Z" fill="#69A1EF"/>
<path opacity="0.4" d="M10.8063 14.7625C8.20037 15.2399 5.63424 15.8366 3.12779 16.692C2.98854 16.7318 2.86917 16.7318 2.71003 16.7517C2.35197 18.2237 2.11328 19.7754 2.11328 21.3668C2.11328 22.9781 2.33207 24.5098 2.71003 26.0017C2.84928 26.0216 2.96865 26.0017 3.12779 26.0415C5.63424 26.877 8.20037 27.4937 10.8063 27.9711C10.3289 23.5748 10.3289 19.1587 10.8063 14.7625Z" fill="#69A1EF"/>
<path opacity="0.4" d="M39.3316 16.7517C39.1923 16.7517 39.073 16.7318 38.9138 16.692C36.4074 15.8565 33.8214 15.2399 31.2354 14.7625C31.7327 19.1587 31.7327 23.5748 31.2354 27.9512C33.8214 27.4738 36.4074 26.877 38.9138 26.0216C39.0531 25.9818 39.1724 26.0017 39.3316 25.9818C39.6896 24.4899 39.9284 22.9581 39.9284 21.3469C39.9284 19.7753 39.7095 18.2436 39.3316 16.7517Z" fill="#69A1EF"/>
<path opacity="0.4" d="M14.4258 31.5913C14.9032 34.1972 15.5 36.7633 16.3554 39.2698C16.3951 39.409 16.3753 39.5284 16.3951 39.6875C17.8871 40.0456 19.4188 40.2843 21.0301 40.2843C22.6215 40.2843 24.1731 40.0655 25.6452 39.6875C25.6651 39.5482 25.6651 39.4289 25.7048 39.2698C26.5403 36.7633 27.157 34.1972 27.6344 31.5913C25.4462 31.83 23.2382 32.009 21.0301 32.009C18.822 31.9891 16.614 31.83 14.4258 31.5913Z" fill="#69A1EF"/>
<path opacity="0.4" d="M13.9681 14.3048C13.3713 18.9994 13.3713 23.7338 13.9681 28.4483C18.6627 29.0451 23.3971 29.0451 28.1116 28.4483C28.7084 23.7537 28.7084 19.0193 28.1116 14.3048C23.3971 13.708 18.6627 13.708 13.9681 14.3048Z" fill="#69A1EF"/>
</svg>
