<svg width="881" height="84" viewBox="0 0 881 84" fill="none" xmlns="http://www.w3.org/2000/svg">
<g opacity="0.06" clip-path="url(#clip0_382_6237)">
<path d="M867.59 -79.41V-98.34L881 -111.73L867.61 -125.11V-144H848.66L836.66 -156L848.66 -168H867.59V-186.91L881 -200.29L867.59 -213.68V-232.61H848.66L835.27 -246L821.89 -232.61H803V-213.68L789.57 -200.29L803 -186.91V-176H791.12L777.73 -189.37L764.35 -176H752.51V-186.91L765.9 -200.29L752.51 -213.68V-232.61H733.58L720.19 -246L706.81 -232.61H687.88V-213.68L674.49 -200.29L687.88 -186.91V-176H676L662.65 -189.37L649.26 -176H637.43V-186.91L650.8 -200.29L637.43 -213.68V-232.61H618.5L605.11 -246L591.72 -232.61H572.8V-213.68L559.41 -200.29L572.8 -186.91V-176H561L547.57 -189.37L534.18 -176H522.35V-186.91L535.72 -200.29L522.35 -213.68V-232.61H503.42L490 -246L476.64 -232.61H457.72V-213.68L444.33 -200.29L457.72 -186.91V-176H445.87L432.49 -189.37L419.1 -176H407.26V-186.91L420.65 -200.29L407.26 -213.68V-232.61H388.34L375 -246L361.56 -232.61H342.64V-213.68L329.25 -200.29L342.64 -186.91V-176H330.79L317.41 -189.37L304 -176H292.18V-186.91L305.57 -200.29L292.18 -213.68V-232.61H273.26L259.87 -246L246.48 -232.61H227.55V-213.68L214.17 -200.29L227.55 -186.91V-176H215.72L202.33 -189.37L188.94 -176H177.1V-186.91L190.49 -200.29L177.1 -213.68V-232.61H158.18L144.79 -246L131.4 -232.61H112.47V-213.68L99.09 -200.29L112.47 -186.91V-176H100.63L87.25 -189.37L73.86 -176H62V-186.91L75.41 -200.29L62 -213.68V-232.61H43.09L29.71 -246L16.32 -232.61H-2.61V-213.68L-16 -200.29L-2.61 -186.91V-168H16.32L28.32 -156L16.32 -144H-2.61V-125.07L-16 -111.73L-2.61 -98.34V-79.41H16.32L24.05 -71.68L6.55 -54.18L24.05 -36.69L16.32 -29H-2.61V-10L-16 3.36L-2.61 16.74V35.67H16.32L28.32 47.67L16.32 59.67H-2.61V78.6L-16 91.93L-2.61 105.31V124.24H16.32L24.05 132L6.55 149.5L24.05 167L16.32 174.73H-2.61V193.66L-16 207L-2.61 220.38V239.31H16.32L28.32 251.31L16.32 263.31H-2.61V282.24L-16 295.58L-2.61 309V327.93H16.32L29.71 341.32L43.09 327.93H62V309L75.39 295.62L62 282.19V271.26H73.86L87.25 284.65L100.63 271.26H112.47V282.19L99.08 295.58L112.47 309V327.93H131.4L144.79 341.32L158.17 327.93H177.1V309L190.49 295.62L177.1 282.19V271.26H188.94L202.33 284.64L215.71 271.26H227.55V282.19L214.17 295.58L227.55 309V327.93H246.48L259.87 341.32L273.26 327.93H292.18V309L305.57 295.62L292.18 282.23V271.26H304L317.39 284.64L330.77 271.26H342.61V282.19L329.23 295.58L342.63 309V327.93H361.56L375 341.28L388.39 327.89H407.31V309L420.7 295.62L407.31 282.23V271.26H419.1L432.49 284.64L445.87 271.26H457.72V282.19L444.33 295.58L457.72 309V327.93H476.64L490 341.28L503.39 327.89H522.31V309L535.7 295.62L522.31 282.23V271.26H534.15L547.54 284.64L561 271.26H572.8V282.19L559.41 295.58L572.8 309V327.93H591.72L605.11 341.32L618.5 327.93H637.43V309L650.8 295.62L637.43 282.23V271.26H649.26L662.65 284.64L676 271.26H687.84V282.19L674.45 295.58L687.88 309V327.93H706.8L720.19 341.32L733.58 327.93H752.51V309L765.88 295.62L752.51 282.23V271.26H764.34L777.73 284.65L791.12 271.26H803V282.19L789.61 295.58L803 309V327.93H821.93L835.31 341.32L848.7 327.93H867.63V309L881 295.58L867.61 282.19V263.26H848.66L836.66 251.26L848.66 239.26H867.59V220.39L881 207L867.61 193.61V174.69H848.66L840.93 167L858.43 149.51L840.92 132L848.66 124.27H867.59V105.31L881 91.93L867.61 78.54V59.61H848.66L836.66 47.61L848.66 35.61H867.59V16.74L881 3.36L867.59 -10V-29H848.66L840.93 -36.73L858.43 -54.22L840.93 -71.72L848.66 -79.45L867.59 -79.41ZM800.89 -200.29L811 -210.36V-224.61H825.25L835.31 -234.68L845.38 -224.61H859.63V-210.36L869.7 -200.29L859.59 -190.23V-176H845.34L835.27 -165.91L825.21 -176H811V-190.23L800.89 -200.29ZM803 -168H821.93L833.93 -156L821.93 -144H799.12L811.12 -156L799.12 -168H803ZM803 231.3H791.12L777.73 217.91L764.35 231.3H752.51V220.39L765.9 207L752.51 193.61V181.78H764.35L777.73 195.17L791.12 181.78H803V193.62L789.57 207L803 220.39V231.3ZM710.17 231.3H695.88V217.07L685.81 207L695.88 196.93V182.69H710.13L720.19 172.62L730.26 182.69H744.51V196.94L754.58 207L744.51 217.06V231.31H730.26L720.19 241.38L710.17 231.3ZM662.69 217.91L649.3 231.3H637.43V220.39L650.8 207L637.43 193.61V181.78H649.26L662.65 195.17L676 181.78H687.84V193.62L674.49 207L687.88 220.38V231.31H676L662.69 217.91ZM595 231.32H580.8V217.07L570.73 207L580.8 196.93V182.69H595L605.07 172.62L615.14 182.69H629.39V196.93L639.49 207L629.43 217.06V231.31H615.18L605.11 241.38L595 231.32ZM547.53 217.93L534.14 231.32H522.35V220.39L535.72 207L522.35 193.61V181.78H534.18L547.57 195.17L561 181.78H572.8V193.62L559.41 207L572.8 220.38V231.31H561L547.53 217.93ZM480 231.32H465.72V217.07L455.65 207L465.72 196.93V182.69H480L490 172.62L500.07 182.69H514.32V196.93L524.41 207L514.35 217.06V231.31H500.1L490 241.39L480 231.32ZM432.53 217.93L419.1 231.32H407.26V220.39L420.65 207L407.26 193.61V181.78H419.1L432.49 195.17L445.88 181.78H457.72V193.62L444.33 207L457.72 220.38V231.31H445.87L432.53 217.93ZM364.92 231.32H350.64V217.07L340.57 207L350.64 196.93V182.69H364.88L375 172.62L385 182.69H399.24V196.94L409.33 207L399.26 217.06V231.31H385L375 241.39L364.92 231.32ZM317.45 217.93L304 231.32H292.18V220.39L305.57 207L292.18 193.61V181.78H304L317.39 195.17L330.78 181.78H342.62V193.62L329.25 207L342.64 220.38V231.31H330.79L317.45 217.93ZM249.8 231.32H235.55V217.07L225.48 207L235.55 196.92V182.69H249.8L259.87 172.62L269.94 182.69H284.18V196.94L294.25 207L284.18 217.06V231.31H269.94L259.87 241.38L249.8 231.32ZM202.33 217.93L188.94 231.32H177.1V220.39L190.49 207L177.1 193.62V181.78H188.94L202.33 195.17L215.72 181.78H227.55V193.62L214.17 207L227.55 220.38V231.31H215.72L202.33 217.93ZM144.79 241.39L134.72 231.32H120.47V217.07L110.4 207L120.47 196.92V182.69H134.72L144.79 172.62L154.86 182.69H169.1V196.94L179.17 207L169.1 217.07V231.32H154.86L144.79 241.39ZM87.25 217.93L73.86 231.32H62V220.39L75.41 207L62 193.62V181.78H73.86L87.25 195.17L100.63 181.78H112.47V193.62L99.09 207L112.47 220.38V231.31H100.63L87.25 217.93ZM62 -136H73.86L87.25 -122.61L100.63 -136H112.47V-125.07L99.08 -111.69L112.47 -98.3V-86.5H100.63L87.25 -99.89L73.86 -86.5H62V-98.34L75.39 -111.73L62 -125.11V-136ZM154.83 -136H169.1V-121.75L179.17 -111.69L169.1 -101.66V-87.41H154.85L144.79 -77.34L134.72 -87.41H120.47V-101.66L110.4 -111.73L120.47 -121.79V-136H134.72L144.79 -146.07L154.83 -136ZM202.31 -122.62L215.71 -136H227.55V-125.07L214.17 -111.69L227.55 -98.3V-86.5H215.72L202.33 -99.89L188.94 -86.5H177.1V-98.34L190.49 -111.73L177.1 -125.11V-136H188.94L202.31 -122.62ZM269.94 -136H284.18V-121.75L294.25 -111.69L284.18 -101.62V-87.37H269.94L259.87 -77.3L249.8 -87.41H235.55V-101.66L225.48 -111.73L235.55 -121.79V-136H249.8L259.87 -146.07L269.94 -136ZM317.41 -122.62L330.79 -136H342.63V-125.07L329.25 -111.69L342.63 -98.3V-86.5H330.8L317.41 -99.89L304 -86.5H292.18V-98.34L305.57 -111.73L292.18 -125.11V-136H304L317.41 -122.62ZM385 -136H399.24V-121.75L409.31 -111.69L399.24 -101.62V-87.37H385L375 -77.34L364.93 -87.41H350.63V-101.66L340.56 -111.73L350.63 -121.79V-136H364.88L375 -146.11L385 -136ZM432.47 -122.62L445.87 -136H457.72V-125.07L444.33 -111.69L457.72 -98.3V-86.5H445.88L432.49 -99.89L419.1 -86.5H407.26V-98.34L420.65 -111.73L407.26 -125.11V-136H419.1L432.47 -122.62ZM500.1 -136H514.34V-121.75L524.41 -111.69L514.34 -101.62V-87.37H500.1L490 -77.34L480 -87.41H465.72V-101.66L455.65 -111.73L465.72 -121.79V-136H480L490 -146.11L500.1 -136ZM547.57 -122.62L561 -136H572.8V-125.07L559.41 -111.69L572.8 -98.3V-86.5H561L547.61 -99.89L534.18 -86.5H522.34V-98.34L535.73 -111.73L522.34 -125.11V-136H534.18L547.57 -122.62ZM615.18 -136H629.43V-121.75L639.49 -111.69L629.43 -101.62V-87.37H615.18L605.11 -77.3L595 -87.41H580.8V-101.66L570.73 -111.73L580.8 -121.79V-136H595L605.07 -146.07L615.18 -136ZM662.65 -122.62L676 -136H687.84V-125.07L674.45 -111.69L687.84 -98.3V-86.5H676L662.61 -99.89L649.26 -86.5H637.43V-98.34L650.8 -111.73L637.43 -125.11V-136H649.26L662.65 -122.62ZM720.19 -146.07L730.26 -136H744.51V-121.75L754.57 -111.69L744.51 -101.62V-87.37H730.26L720.19 -77.3L710.12 -87.37H695.88V-101.66L685.81 -111.73L695.88 -121.79V-136H710.12L720.19 -146.07ZM812.11 -54.14L802.05 -44.08V-29.83H787.8L777.73 -19.8L767.67 -29.87H753.42V-44.12L743.35 -54.18L753.42 -64.25V-78.5H767.67L777.73 -88.57L787.8 -78.5H802.05V-64.25L812.11 -54.14ZM777.73 69.68L768.84 60.78L767.66 59.61L755.66 47.61L777.66 25.61L799.66 47.61L777.73 69.68ZM744.38 47.68L756.38 59.68H733.58L721.58 47.68L733.58 35.68H756.35L744.38 47.68ZM812.11 149.51L802.05 159.57V173.82H787.8L777.73 183.89L767.67 173.82H753.42V159.53L743.35 149.47L753.42 139.4V125.15H767.67L777.73 115.08L787.8 125.15H802.05V139.39L812.11 149.51ZM733.58 174.73L725.85 167L737.69 155.16L745.42 162.89V174.73H733.58ZM628.27 149.47L638.34 139.4V125.15H652.57L662.65 115.08L672.72 125.15H687V139.39L697 149.47L687 159.53V173.78H672.72L662.65 183.85L652.58 173.78H638.34V159.53L628.27 149.47ZM618.5 174.69L610.77 167L622.61 155.16L630.34 162.89V174.73L618.5 174.69ZM513.19 149.47L523.26 139.4V125.15H537.49L547.57 115.08L557.64 125.15H571.89V139.39L582 149.47L571.94 159.53V173.78H557.64L547.57 183.85L537.5 173.78H523.26V159.53L513.19 149.47ZM503.42 174.69L495.69 167L507.53 155.16L515.26 162.89V174.73L503.42 174.69ZM398.11 149.47L408.18 139.4V125.15H422.41L432.49 115.08L442.56 125.15H456.8V139.4L466.87 149.47L456.8 159.53V173.78H442.56L432.49 183.85L422.42 173.78H408.18V159.53L398.11 149.47ZM388.34 174.69L380.61 167L392.45 155.16L400.18 162.89V174.73L388.34 174.69ZM283 149.47L293.07 139.39V125.15H307.31L317.39 115.08L327.46 125.15H341.7V139.4L351.77 149.47L341.7 159.53V173.78H327.48L317.41 183.85L307.34 173.78H293.09V159.53L283 149.47ZM273.24 174.69L265.53 167L277.37 155.16L285.09 162.89V174.73L273.24 174.69ZM167.94 149.47L178 139.39V125.15H192.24L202.32 115.08L212.39 125.15H226.63V139.4L236.7 149.47L226.63 159.53V173.78H212.4L202.33 183.85L192.26 173.78H178V159.53L167.94 149.47ZM158.18 174.69L150.45 167L162.29 155.16L170.01 162.89V174.73L158.18 174.69ZM52.86 149.47L62.93 139.4V125.15H77.17L87.25 115.08L97.31 125.15H111.56V139.4L121.63 149.47L111.56 159.53V173.78H97.31L87.25 183.85L77.18 173.78H62.93V159.53L52.86 149.47ZM87.25 25.6L109.25 47.6L87.25 69.6L65.25 47.6L87.25 25.6ZM120.59 47.6L108.59 35.6H131.4L143.4 47.6L131.4 59.6H108.63L120.59 47.6ZM52.86 -54.18L62.93 -64.25V-78.5H77.18L87.25 -88.57L97.31 -78.5H111.56V-64.25L121.63 -54.18L111.56 -44.12V-29.87H97.31L87.25 -19.8L77.18 -29.87H62.93V-44.12L52.86 -54.18ZM131.4 -79.41L139.13 -71.68L127.29 -59.84L119.56 -67.57V-79.41H131.4ZM236.71 -54.18L226.64 -44.12V-29.87H212.4L202.33 -19.8L192.26 -29.87H178V-44.12L168 -54.18L178 -64.25V-78.5H192.25L202.32 -88.57L212.4 -78.5H226.64V-64.25L236.71 -54.18ZM246.48 -79.41L254.21 -71.68L242.37 -59.84L234.64 -67.57V-79.41H246.48ZM351.79 -54.18L341.72 -44.12V-29.87H327.48L317.41 -19.8L307.34 -29.87H293.09V-44.12L283 -54.18L293.07 -64.25V-78.5H307.32L317.39 -88.57L327.46 -78.5H341.7V-64.25L351.79 -54.18ZM361.56 -79.41L369.29 -71.68L357.45 -59.84L349.72 -67.57V-79.41H361.56ZM466.87 -54.18L456.8 -44.12V-29.87H442.56L432.49 -19.8L422.42 -29.87H408.18V-44.12L398.11 -54.18L408.18 -64.25V-78.5H422.42L432.49 -88.57L442.56 -78.5H456.8V-64.25L466.87 -54.18ZM476.64 -79.41L484.37 -71.68L472.53 -59.84L464.8 -67.57V-79.41H476.64ZM582 -54.18L571.94 -44.12V-29.87H557.64L547.57 -19.8L537.5 -29.87H523.26V-44.12L513.19 -54.18L523.26 -64.25V-78.5H537.5L547.57 -88.57L557.64 -78.5H571.89V-64.25L582 -54.18ZM591.77 -79.41L599.5 -71.68L587.66 -59.84L579.94 -67.57V-79.41H591.77ZM697 -54.18L687 -44.12V-29.87H672.72L662.65 -19.8L652.58 -29.87H638.34V-44.12L628.27 -54.18L638.34 -64.25V-78.5H652.58L662.65 -88.57L672.72 -78.5H687V-64.25L697 -54.18ZM706.77 -79.41L714.5 -71.68L702.66 -59.84L695 -67.57V-79.41H706.77ZM737.66 -59.84L725.82 -71.68L733.55 -79.41H745.39V-67.57L737.66 -59.84ZM737.66 143.81L725.85 132L733.58 124.27H745.42V136.11L737.66 143.81ZM732 149.47L720.19 161.3L708.35 149.47L720.19 137.63L732 149.47ZM702.66 143.81L695 136.08V124.24H706.8L714.53 131.97L702.66 143.81ZM687.85 117.15H676L662.62 103.77L649.23 117.15H637.43V105.31L650.8 91.93L637.43 78.54V67.61H649.26L662.65 81L676 67.61H687.84V78.54L674.45 91.93L687.84 105.31L687.85 117.15ZM622.58 143.81L610.77 132L618.5 124.27H630.34V136.11L622.58 143.81ZM605.08 161.3L593.24 149.47L605.08 137.63L617 149.47L605.11 161.3H605.08ZM587.58 143.81L579.86 136.08V124.24H591.69L599.42 131.97L587.58 143.81ZM507.5 143.81L495.69 132L503.42 124.27H515.26V136.11L507.5 143.81ZM490 161.3L478.16 149.47L490 137.63L501.84 149.47L490 161.3ZM464.8 136.08V124.24H476.64L484.37 131.97L472.53 143.81L464.8 136.08ZM392.45 143.81L380.61 132L388.34 124.27H400.18V136.11L392.45 143.81ZM375 161.3L363.16 149.47L375 137.63L386.84 149.47L375 161.3ZM349.77 136.08V124.24H361.61L369.34 131.97L357.5 143.81L349.77 136.08ZM265.53 132L273.26 124.27H285.09V136.11L277.37 143.84L265.53 132ZM259.87 161.33L248 149.47L259.84 137.63L271.68 149.47L259.87 161.3V161.33ZM234.64 136.11V124.24H246.48L254.21 131.97L242.37 143.81L234.64 136.11ZM150.44 132L158.17 124.27H170V136.11L162.28 143.84L150.44 132ZM144.79 161.33L133 149.47L144.84 137.63L156.68 149.47L144.79 161.3V161.33ZM127.29 -48.5L139.13 -36.66L131.4 -29H119.56V-40.8L127.29 -48.5ZM144.79 -66L156.63 -54.16L144.79 -42.33L133 -54.18L144.79 -66ZM162.29 -48.51L170 -40.8V-29H158.18L150.45 -36.73L162.29 -48.51ZM177.1 -21.85H188.94L202.33 -8.47L215.72 -21.85H227.55V-10L214.17 3.39L227.55 16.77V27.7H215.72L202.33 14.31L188.94 27.7H177.1V16.74L190.49 3.36L177.1 -10V-21.85ZM242.37 -48.51L254.21 -36.67L246.48 -29H234.64V-40.8L242.37 -48.51ZM277.37 -48.51L285.09 -40.78V-29H273.26L265.53 -36.73L277.37 -48.51ZM357.45 -48.51L369.29 -36.67L361.56 -29H349.72V-40.8L357.45 -48.51ZM400.18 -40.78V-29H388.34L380.61 -36.73L392.45 -48.57L400.18 -40.78ZM472.53 -48.51L484.37 -36.67L476.64 -29H464.8V-40.8L472.53 -48.51ZM515.26 -40.78V-29H503.42L495.69 -36.73L507.53 -48.57L515.26 -40.78ZM599.45 -36.67L591.72 -29H579.89V-40.8L587.61 -48.53L599.45 -36.67ZM630.34 -40.78V-29H618.5L610.77 -36.73L622.61 -48.57L630.34 -40.78ZM662.65 69.7L640.65 47.7L662.65 25.7L684.65 47.7L662.65 69.7ZM629.29 47.7L641.29 59.7H618.5L606.5 47.7L618.5 35.7H641.26L629.29 47.7ZM570.73 91.99L580.8 81.92V67.61H595L605.07 57.54L615.14 67.61H629.39V81.85L639.45 91.93L629.43 102V116.25H615.18L605.11 126.32L595 116.24H580.8V102L570.73 91.99ZM455.65 91.99L465.72 81.92V67.61H480L490 57.54L500.07 67.61H514.31V81.86L524.38 91.93L514.34 102V116.25H500.1L490 126.31L480 116.24H465.72V102L455.65 91.99ZM340.56 91.99L350.63 81.91V67.61H364.88L375 57.54L385 67.61H399.24V81.86L409.31 91.93L399.26 102V116.25H385L375 126.31L364.93 116.24H350.63V102L340.56 91.99ZM225.48 91.99L235.55 81.91V67.61H249.8L259.87 57.54L269.94 67.61H284.18V81.86L294.25 91.93L284.18 102V116.25H269.94L259.87 126.32L249.8 116.24H235.55V102L225.48 91.99ZM202.33 25.6L224.33 47.6L202.33 69.6L180.33 47.6L202.33 25.6ZM235.69 47.6L223.69 35.6H246.45L258.45 47.6L246.45 59.6H223.72L235.69 47.6ZM269.94 -21H284.18V-6.75L294.25 3.32001L284.18 13.38V27.63H269.94L259.87 37.7L249.8 27.67H235.55V13.42L225.48 3.36L235.55 -6.71001V-21H249.8L259.87 -31L269.94 -21ZM273.26 59.57L261.26 47.57L273.26 35.57H296L284 47.57L296 59.57H273.26ZM295.37 47.57L317.37 25.57L339.37 47.57L317.37 69.57L295.37 47.57ZM350.77 47.57L338.77 35.57H361.53L373.53 47.57L361.53 59.57H338.8L350.77 47.57ZM385 -21H399.24V-6.75L409.31 3.32001L399.24 13.38V27.63H385L375 37.74L364.93 27.67H350.64V13.42L340.57 3.36L350.64 -6.71001V-21H364.88L375 -31L385 -21ZM388.32 59.57L376.32 47.57L388.32 35.57H411.1L399.1 47.57L411.1 59.57H388.34H388.32ZM410.43 47.57L432.43 25.57L454.43 47.57L432.43 69.57L410.43 47.57ZM465.83 47.57L453.83 35.57H476.59L488.59 47.57L476.59 59.57H453.88L465.83 47.57ZM500.1 -21H514.35V-6.75L524.41 3.32001L514.35 13.38V27.63H500.1L490 37.74L480 27.67H465.72V13.42L455.65 3.36L465.72 -6.71001V-21H480L490 -31L500.1 -21ZM503.42 59.57L491.42 47.57L503.42 35.57H526.18L514.18 47.57L526.18 59.57H503.42ZM525.53 47.57L547.53 25.57L569.53 47.57L547.53 69.57L525.53 47.57ZM580.93 47.57L568.93 35.57H591.69L603.69 47.57L591.69 59.57H569L580.93 47.57ZM629.43 13.35V27.6H615.18L605.11 37.67L595 27.67H580.8V13.42L570.73 3.36L580.8 -6.71001V-21H595L605.11 -31L615.18 -21H629.43V-6.75L639.49 3.32001L629.43 13.35ZM605.11 -42.42L593.27 -54.25L605.11 -66L617 -54.18L605.11 -42.42ZM572.8 -10L559.41 3.39L572.8 16.77V27.7H561L547.61 14.31L534.22 27.7H522.35V16.74L535.72 3.36L522.35 -10V-21.87H534.18L547.57 -8.49001L561 -21.87H572.8V-10ZM490 -42.35L478.16 -54.18L490 -66L501.84 -54.16L490 -42.35ZM457.72 -10L444.33 3.39L457.72 16.77V27.7H445.88L432.49 14.31L419.1 27.67H407.26V16.74L420.65 3.36L407.26 -10V-21.87H419.1L432.49 -8.49001L445.88 -21.87H457.72V-10ZM375 -42.35L363.16 -54.18L375 -66L386.84 -54.16L375 -42.35ZM342.64 -10L329.25 3.39L342.64 16.77V27.7H330.8L317.41 14.31L304 27.67H292.18V16.74L305.57 3.36L292.18 -10V-21.87H304L317.39 -8.49001L330.78 -21.87H342.62L342.64 -10ZM259.87 -42.32L248 -54.18L259.87 -66L271.71 -54.16L259.87 -42.32ZM177.1 35.68H180.94L168.94 47.68L180.94 59.68H158.17L146.17 47.68L158.17 35.68H177.1ZM177.1 67.62H188.94L202.33 81L215.72 67.61H227.55V78.54L214.17 91.93L227.55 105.31V117.15H215.71L202.33 103.77L188.94 117.15H177.1V105.31L190.49 91.93L177.1 78.54V67.62ZM292.18 105.32L305.57 91.94L292.18 78.55V67.61H304L317.41 81L330.8 67.61H342.63V78.54L329.25 91.93L342.63 105.31V117.15H330.79L317.41 103.77L304 117.15H292.18V105.32ZM407.26 105.32L420.65 91.94L407.26 78.55V67.61H419.1L432.49 81L445.88 67.61H457.72V78.54L444.33 91.93L457.72 105.31V117.15H445.87L432.49 103.77L419.1 117.15H407.26V105.32ZM522.34 105.32L535.73 91.94L522.34 78.55V67.61H534.18L547.57 81L561 67.61H572.8V78.54L559.41 91.93L572.8 105.31V117.15H561L547.62 103.77L534.23 117.15H522.34V105.32ZM687.88 59.62H684L696 47.62L684 35.62H706.77L718.77 47.62L706.77 59.62H687.88ZM687.88 27.68H676L662.61 14.29L649.22 27.68H637.43V16.74L650.8 3.36L637.43 -10V-21.87H649.26L662.65 -8.49001L676 -21.87H687.84V-10L674.45 3.39L687.84 16.77L687.88 27.68ZM714.53 -36.68L706.81 -29H695V-40.8L702.72 -48.53L714.53 -36.68ZM720.19 -42.34L708.35 -54.17L720.19 -66L732 -54.18L720.16 -42.35L720.19 -42.34ZM630.34 -67.56L622.61 -59.83L610.77 -71.67L618.5 -79.4H630.34V-67.56ZM515.26 -67.56L507.53 -59.83L495.69 -71.67L503.42 -79.4H515.26V-67.56ZM400.18 -67.56L392.45 -59.83L380.61 -71.67L388.34 -79.4H400.18V-67.56ZM285.09 -67.56L277.37 -59.83L265.53 -71.67L273.26 -79.4H285.09V-67.56ZM170.01 -67.56L162.29 -59.83L150.44 -71.67L158.17 -79.4H170L170.01 -67.56ZM120.47 -6.7V-21H134.72L144.79 -31L154.86 -21H169.1V-6.75L179.17 3.32001L169.1 13.42V27.67H154.86L144.79 37.74L134.72 27.67H120.47V13.42L110.4 3.36L120.47 -6.7ZM120.47 81.87V67.61H134.72L144.79 57.54L154.85 67.61H169.1V81.86L179.17 91.93L169.1 102V116.25H154.85L144.79 126.32L134.72 116.25H120.47V102L110.4 91.93L120.47 81.87ZM131.4 124.25L139.13 131.98L127.29 143.82L119.56 136.09V124.24L131.4 124.25ZM119.56 162.86L127.29 155.13L139.13 167L131.4 174.73H119.56V162.86ZM234.64 162.86L242.37 155.13L254.21 167L246.48 174.73H234.64V162.86ZM349.72 162.86L357.45 155.13L369.29 167L361.56 174.73H349.72V162.86ZM464.8 162.86L472.53 155.13L484.37 167L476.64 174.73H464.8V162.86ZM579.89 162.86L587.61 155.13L599.45 167L591.72 174.73H579.89V162.86ZM694.97 162.86L702.69 155.13L714.53 167L706.81 174.73H695L694.97 162.86ZM744.51 102V116.25H730.26L720.19 126.32L710.12 116.25H695.88V102L685.81 91.94L695.88 81.87V67.61H710.12L720.19 57.54L730.26 67.61H744.51V81.85L754.57 91.93L744.51 102ZM744.51 13.43V27.68H730.26L720.19 37.75L710.13 27.68H695.88V13.42L685.81 3.36L695.88 -6.71001V-21H710.13L720.19 -31L730.26 -21H744.51V-6.75L754.58 3.32001L744.51 13.43ZM733.58 -29L725.85 -36.73L737.69 -48.57L745.42 -40.84V-29H733.58ZM54.93 -67.57L47.2 -59.84L35.36 -71.68L43.09 -79.41H54.93V-67.57ZM54.93 -40.8V-29H43.09L35.36 -36.73L47.2 -48.53L54.93 -40.8ZM62 -21.87H73.86L87.25 -8.48L100.63 -21.87H112.47V-10L99.09 3.39L112.47 16.77V27.7H100.63L87.25 14.31L73.86 27.67H62V16.74L75.39 3.36L62 -10V-21.87ZM62 35.67H65.84L53.84 47.67L65.84 59.67H43.09L31.09 47.67L43.09 35.67H62ZM62 67.61H73.86L87.25 81L100.63 67.61H112.47V78.54L99.08 91.93L112.47 105.31V117.15H100.62L87.25 103.77L73.86 117.15H62V105.31L75.39 91.93L62 78.54V67.61ZM54.91 136.08L47.18 143.81L35.36 132L43.09 124.27H54.93L54.91 136.08ZM54.91 162.85V174.69H43.09L35.36 167L47.2 155.12L54.91 162.85ZM810.03 162.85L817.75 155.12L829.61 167L821.89 174.73H810.05L810.03 162.85ZM817.75 143.85L810.03 136.12V124.24H821.87L829.59 131.97L817.75 143.85ZM803 117.15H791.11L777.73 103.77L764.35 117.15H752.51V105.31L765.88 91.93L752.51 78.54V67.61H764.34L777.73 81L791.12 67.61H803V78.54L789.61 91.93L803 105.31V117.15ZM803 59.61H799.16L811.16 47.61L799.16 35.61H821.93L833.93 47.61L821.93 59.61H803ZM803 27.67H791.12L777.73 14.28L764.35 27.67H752.51V16.74L765.9 3.36L752.51 -10V-21.87H764.35L777.73 -8.48L791.12 -21.87H803V-10L789.61 3.39L803 16.74V27.67ZM810.09 -40.8L817.81 -48.53L829.65 -36.69L821.89 -29H810.05L810.09 -40.8ZM817.81 -59.8L810.09 -67.54V-79.41H821.93L829.65 -71.68L817.81 -59.8ZM803 -86.5H791.12L777.73 -99.89L764.35 -86.5H752.51V-98.34L765.88 -111.73L752.51 -125.11V-136H764.35L777.73 -122.61L791.12 -136H803V-125.07L789.61 -111.69L803 -98.34V-86.5ZM799.77 -156L777.77 -134L767.66 -144L755.66 -156L777.66 -178L799.77 -156ZM756.35 -168L744.35 -156L756.35 -144H733.58L721.58 -156L733.58 -168H756.35ZM685.81 -200.29L695.88 -210.36V-224.61H710.13L720.19 -234.68L730.26 -224.61H744.51V-210.36L754.58 -200.29L744.51 -190.23V-176H730.26L720.19 -165.91L710.13 -176H695.88V-190.23L685.81 -200.29ZM687.88 -168H706.81L718.81 -156L706.81 -144H684L696 -156L684 -168H687.88ZM684.69 -156L662.69 -134L640.69 -156L662.69 -178L684.69 -156ZM641.26 -168L629.26 -156L641.26 -144H618.5L606.5 -156L618.5 -168H641.26ZM570.73 -200.29L580.8 -210.36V-224.61H595L605.07 -234.68L615.14 -224.61H629.39V-210.37L639.45 -200.29L629.43 -190.23V-176H615.18L605.11 -165.91L595 -176H580.8V-190.23L570.73 -200.29ZM572.8 -168H591.72L603.72 -156L591.72 -144H569L581 -156L569 -168H572.8ZM569.61 -156L547.61 -134L525.61 -156L547.61 -178L569.61 -156ZM526.18 -168L514.18 -156L526.18 -144H503.42L491.42 -156L503.42 -168H526.18ZM455.65 -200.29L465.72 -210.36V-224.61H480L490 -234.68L500.1 -224.61H514.35V-210.37L524.41 -200.29L514.35 -190.23V-176H500.1L490 -165.91L480 -176H465.72V-190.23L455.65 -200.29ZM457.72 -168H476.64L488.64 -156L476.64 -144H453.87L465.87 -156L453.87 -168H457.72ZM454.53 -156L432.53 -134L410.53 -156L432.53 -178L454.53 -156ZM411.1 -168L399.1 -156L411.1 -144H388.34L376.34 -156L388.34 -168H411.1ZM340.57 -200.29L350.64 -210.36V-224.61H364.88L375 -234.68L385 -224.61H399.24V-210.36L409.31 -200.29L399.26 -190.23V-176H385L375 -165.91L364.88 -176H350.64V-190.23L340.57 -200.29ZM342.64 -168H361.56L373.56 -156L361.56 -144H338.79L350.79 -156L338.79 -168H342.64ZM339.45 -156L317.45 -134L295.45 -156L317.45 -178L339.45 -156ZM296 -168L284 -156L296 -144H273.26L261.26 -156L273.26 -168H296ZM225.48 -200.29L235.55 -210.37V-224.61H249.8L259.87 -234.68L269.94 -224.61H284.18V-210.36L294.25 -200.29L284.18 -190.23V-176H269.94L259.87 -165.91L249.8 -176H235.55V-190.23L225.48 -200.29ZM227.55 -168H246.48L258.48 -156L246.48 -144H223.71L235.71 -156L223.71 -168H227.55ZM224.37 -156L202.37 -134L180.37 -156L202.37 -178L224.37 -156ZM180.94 -168L169 -156L181 -144H158.17L146.17 -156L158.17 -168H180.93H180.94ZM110.4 -200.29L120.47 -210.37V-224.61H134.72L144.79 -234.68L154.86 -224.61H169.1V-210.36L179.17 -200.29L169.1 -190.23V-176H154.86L144.79 -165.91L134.72 -176H120.47V-190.23L110.4 -200.29ZM112.47 -168H131.4L143.4 -156L131.4 -144H108.63L120.63 -156L108.63 -168H112.47ZM109.28 -156L87.28 -134L65.28 -156L87.28 -178L109.28 -156ZM65.86 -168L53.86 -156L65.86 -144H43.09L31.09 -156L43.09 -168H65.86ZM5.39 -176V-190.23L-4.68 -200.29L5.39 -210.36V-224.61H19.64L29.71 -234.68L39.77 -224.61H54V-210.36L64.09 -200.29L54 -190.23V-176H39.77L29.71 -165.91L19.64 -176H5.39ZM5.39 -87.43V-101.66L-4.68 -111.73L5.39 -121.79V-136H19.64L29.71 -146.11L39.77 -136H54V-121.75L64.07 -111.69L54 -101.66V-87.41H39.77L29.71 -77.34L19.64 -87.41L5.39 -87.43ZM29.71 -42.37L17.87 -54.18L29.71 -66L41.54 -54.16L29.71 -42.37ZM5.39 27.63V13.42L-4.68 3.36L5.39 -6.71001V-21H19.64L29.71 -31L39.77 -21H54V-6.75L64.07 3.32001L54 13.42V27.67H39.77L29.71 37.74L19.64 27.67L5.39 27.63ZM5.39 116.2V102L-4.68 91.93L5.39 81.86V67.61H19.64L29.71 57.54L39.77 67.61H54V81.86L64.07 91.93L54 102V116.25H39.77L29.71 126.31L19.64 116.24L5.39 116.2ZM17.87 149.43L29.71 137.59L41.54 149.43L29.71 161.3L17.87 149.43ZM5.39 231.32V217.07L-4.68 207L5.39 196.93V182.69H19.64L29.71 172.62L39.77 182.69H54V196.94L64.09 207L54 217.07V231.32H39.77L29.71 241.39L19.64 231.32H5.39ZM64.09 295.58L54 305.64V319.89H39.77L29.71 330L19.64 319.89H5.39V305.64L-4.68 295.58L5.39 285.51V271.26H19.64L29.71 261.19L39.77 271.26H54V285.51L64.09 295.58ZM62 263.26H43.09L31.09 251.26L43.09 239.26H65.86L53.86 251.26L65.86 263.26H62ZM87.23 273.33L65.23 251.33L87.23 229.33L109.23 251.33L87.23 273.33ZM108.61 263.26L120.61 251.26L108.61 239.26H131.4L143.4 251.26L131.4 263.26H108.63H108.61ZM179.15 295.58L169.1 305.64V319.89H154.85L144.79 330L134.72 319.93H120.47V305.64L110.4 295.58L120.47 285.51V271.26H134.72L144.79 261.19L154.85 271.26H169.1V285.51L179.15 295.58ZM177.08 263.26H158.17L146.17 251.26L158.17 239.26H180.93L168.93 251.26L180.93 263.26H177.08ZM180.27 251.26L202.27 229.26L224.27 251.26L202.27 273.26L180.27 251.26ZM223.69 263.26L235.69 251.26L223.69 239.26H246.45L258.45 251.26L246.45 263.26H223.71H223.69ZM294.23 295.58L284.16 305.64V319.89H269.94L259.87 330L249.8 319.89H235.55V305.64L225.48 295.58L235.55 285.5V271.26H249.8L259.87 261.19L269.94 271.26H284.18V285.51L294.23 295.58ZM292.16 263.26H273.26L261.26 251.26L273.26 239.26H296L284 251.26L296 263.26H292.16ZM295.35 251.26L317.35 229.26L339.35 251.26L317.35 273.26L295.35 251.26ZM338.77 263.26L350.77 251.26L338.77 239.26H361.54L373.54 251.26L361.54 263.26H338.79H338.77ZM409.31 295.58L399.24 305.64V319.89H385L375 330L364.93 319.93H350.63V305.64L340.56 295.58L350.63 285.5V271.26H364.88L375 261.19L385 271.26H399.24V285.51L409.31 295.58ZM407.24 263.26H388.34L376.34 251.26L388.34 239.26H411.1L399.1 251.26L411.1 263.26H407.24ZM410.43 251.26L432.43 229.26L454.43 251.26L432.43 273.26L410.43 251.26ZM453.85 263.26L465.85 251.26L453.85 239.26H476.62L488.62 251.26L476.62 263.26H453.87H453.85ZM524.39 295.58L514.32 305.64V319.89H500.1L490 330L480 319.89H465.72V305.64L455.65 295.58L465.72 285.51V271.26H480L490 261.19L500.07 271.26H514.31V285.51L524.39 295.58ZM522.32 263.26H503.42L491.42 251.26L503.42 239.26H526.18L514.18 251.26L526.18 263.26H522.32ZM525.51 251.26L547.51 229.26L569.51 251.26L547.51 273.26L525.51 251.26ZM568.94 263.26L580.94 251.26L568.94 239.26H591.7L603.7 251.26L591.7 263.26H569H568.94ZM639.47 295.58L629.41 305.64V319.89H615.18L605.11 330L595 319.89H580.8V305.64L570.73 295.58L580.8 285.51V271.26H595L605.07 261.19L615.14 271.26H629.39V285.5L639.47 295.58ZM637.41 263.26H618.5L606.5 251.26L618.5 239.26H641.26L629.26 251.26L641.26 263.26H637.41ZM640.59 251.26L662.59 229.26L684.59 251.26L662.59 273.26L640.59 251.26ZM684.02 263.26L696.02 251.26L684.02 239.26H706.79L718.79 251.26L706.79 263.26H684H684.02ZM754.55 295.58L744.49 305.64V319.89H730.26L720.19 330L710.12 319.93H695.88V305.64L685.81 295.58L695.88 285.51V271.26H710.12L720.19 261.19L730.26 271.26H744.51V285.5L754.55 295.58ZM752.49 263.26H733.58L721.58 251.26L733.58 239.26H756.35L744.35 251.26L756.35 263.26H752.49ZM767.64 263.26L755.64 251.26L777.64 229.26L799.64 251.26L777.64 273.26L767.64 263.26ZM799.1 263.26L811.1 251.26L799.1 239.26H821.87L833.87 251.26L821.87 263.26H799.12H799.1ZM859.57 271.26V285.51L869.64 295.58L859.57 305.64V319.89H845.34L835.27 330L825.21 319.93H811V305.64L800.93 295.58L811 285.51V271.26H825.25L835.31 261.19L845.38 271.26H859.57ZM859.57 182.69V196.94L869.66 207L859.59 217.06V231.31H845.34L835.27 241.38L825.21 231.31H811V217.07L800.89 207L811 196.94V182.69H825.25L835.31 172.62L845.38 182.69H859.57ZM835.27 161.3L823.43 149.47L835.27 137.63L847.11 149.47L835.27 161.3ZM859.59 67.61V81.86L869.66 91.93L859.59 102V116.25H845.34L835.27 126.32L825.21 116.25H811V102L800.93 91.94L811 81.86V67.61H825.25L835.31 57.54L845.38 67.61H859.59ZM859.59 -20.96V-6.71001L869.66 3.36L859.59 13.42V27.67H845.34L835.27 37.74L825.21 27.67H811V13.42L800.93 3.36L811 -6.71001V-21H825.25L835.27 -31L845.34 -21L859.59 -20.96ZM835.27 -42.35L823.43 -54.18L835.27 -66L847.11 -54.16L835.27 -42.35ZM835.27 -77.35L825.21 -87.42H811V-101.66L800.93 -111.73L811 -121.79V-136H825.25L835.31 -146.07L845.34 -136H859.59V-121.75L869.66 -111.69L859.59 -101.62V-87.37H845.34L835.27 -77.35Z" fill="url(#paint0_radial_382_6237)"/>
<path d="M828.1 -13.9999H818V-3.85992L810.83 3.32008L818 10.4901V20.6301H828.1L835.27 27.7901L842.44 20.6301H852.59V10.5301L859.75 3.36008L852.59 -3.81993V-13.9999H842.44L835.27 -21.1699L828.1 -13.9999ZM839.1 -5.99992H844.56V-0.549927L848.41 3.32008L844.56 7.17007V12.6301H839.1L835.24 16.4801L831.38 12.6301H826V7.17007L822.14 3.32008L826 -0.549927V-5.99992H831.46L835.31 -9.85992L839.1 -5.99992Z" fill="url(#paint1_radial_382_6237)"/>
<path d="M828.1 74.6099H818V84.7499L810.82 91.9299L818 99.0999V109.24H828.1L835.27 116.42L842.45 109.24H852.59V99.0999L859.75 91.9299L852.59 84.7499V74.6099H842.44L835.27 67.4399L828.1 74.6099ZM839.1 82.6099H844.56V88.0599L848.41 91.9299L844.56 95.7799V101.24H839.1L835.24 105.1L831.39 101.24H826V95.7799L822.14 91.9299L826 88.0599V82.6099H831.45L835.31 78.7499L839.1 82.6099Z" fill="url(#paint2_radial_382_6237)"/>
<path d="M777.73 33.6201L763.73 47.6201L777.73 61.6201L791.73 47.6201L777.73 33.6201ZM775.031 47.6201L777.73 44.9101L780.44 47.6201L777.73 50.3201L775.031 47.6201Z" fill="url(#paint3_radial_382_6237)"/>
<path d="M737.51 -3.81993V-13.9999H727.36L720.19 -21.1699L713 -13.9999H702.88V-3.85992L695.7 3.32008L702.88 10.4901V20.6301H713L720.17 27.7901L727.34 20.6301H737.49V10.5301L744.65 3.36008L737.51 -3.81993ZM729.51 7.18007V12.6401H724.05L720.19 16.4901L716.34 12.6401H710.88V7.18007L707 3.36008L710.86 -0.499924V-5.99992H716.32L720.17 -9.85992L724.03 -5.99992H729.49V-0.549927L733.34 3.32008L729.51 7.18007Z" fill="url(#paint4_radial_382_6237)"/>
<path d="M737.51 84.7499V74.6099H727.36L720.19 67.4399L713 74.6099H702.88V84.7499L695.7 91.9299L702.88 99.0999V109.24H713L720.17 116.42L727.35 109.24H737.49V99.0999L744.65 91.9299L737.51 84.7499ZM729.51 95.7499V101.21H724.05L720.19 105.07L716.34 101.21H710.88V95.7499L707 91.9299L710.86 88.0599V82.6099H716.32L720.17 78.7499L724.03 82.6099H729.49V88.0599L733.34 91.9299L729.51 95.7499Z" fill="url(#paint5_radial_382_6237)"/>
<path d="M662.65 33.6201L648.65 47.6201L662.65 61.6201L676.65 47.6201L662.65 33.6201ZM659.95 47.6201L662.65 44.9101L665.36 47.6201L662.65 50.3201L659.95 47.6201Z" fill="url(#paint6_radial_382_6237)"/>
<path d="M622.43 -3.81993V-13.9999H612.28L605.11 -21.1699L597.94 -13.9999H587.8V-3.85992L580.62 3.32008L587.8 10.4901V20.6301H597.94L605.11 27.7901L612.28 20.6301H622.43V10.5301L629.59 3.36008L622.43 -3.81993ZM614.43 7.18007V12.6401H609L605.14 16.4901L601.29 12.6401H595.8V7.18007L591.94 3.33008L595.8 -0.529922V-5.99992H601.26L605.11 -9.85992L609 -5.99992H614.46V-0.549927L618.31 3.32008L614.43 7.18007Z" fill="url(#paint7_radial_382_6237)"/>
<path d="M587.8 109.24H597.94L605.11 116.42L612.29 109.24H622.43V99.0999L629.59 91.9299L622.43 84.7499V74.6099H612.28L605.11 67.4399L597.94 74.6099H587.8V84.7499L580.62 91.9299L587.8 99.0999V109.24ZM595.8 88.0599V82.6099H601.26L605.11 78.7499L608.97 82.6099H614.43V88.0599L618.28 91.9299L614.43 95.7799V101.24H609L605.14 105.1L601.29 101.24H595.8V95.7799L591.94 91.9299L595.8 88.0599Z" fill="url(#paint8_radial_382_6237)"/>
<path d="M547.57 33.6201L533.57 47.6201L547.57 61.6201L561.57 47.6201L547.57 33.6201ZM544.87 47.6201L547.57 44.9101L550.28 47.6201L547.57 50.3201L544.87 47.6201Z" fill="url(#paint9_radial_382_6237)"/>
<path d="M472.72 -3.81989L465.54 3.36012L472.72 10.5301V20.6701H482.86L490.03 27.8301L497.2 20.6701H507.35V10.5301L514.51 3.36012L507.35 -3.81989V-13.9999H497.2L490 -21.1299L482.86 -13.9999H472.72V-3.81989ZM480.72 -0.499878V-5.99988H486.18L490.03 -9.85988L493.89 -5.99988H499.35V-0.549881L503.2 3.32013L499.35 7.17012V12.6301H493.89L490 16.5201L486.15 12.6701H480.69V7.21013L476.83 3.36012L480.72 -0.499878Z" fill="url(#paint10_radial_382_6237)"/>
<path d="M472.72 109.24H482.86L490.03 116.42L497.2 109.24H507.34V99.0999L514.52 91.9299L507.34 84.7499V74.6099H497.2L490 67.4399L482.83 74.6099H472.72V84.7499L465.54 91.9299L472.72 99.0999V109.24ZM480.72 88.0699V82.6099H486.18L490.03 78.7599L493.88 82.6099H499.34V88.0699L503.2 91.9299L499.34 95.7799V101.24H493.88L490 105.1L486.15 101.24H480.69V95.7799L476.83 91.9299L480.72 88.0699Z" fill="url(#paint11_radial_382_6237)"/>
<path d="M446.51 47.6401L432.51 33.6401L418.51 47.6401L432.51 61.6401L446.51 47.6401ZM432.51 44.9401L435.21 47.6401L432.51 50.3401L429.81 47.6401L432.51 44.9401Z" fill="url(#paint12_radial_382_6237)"/>
<path d="M357.64 -3.81989L350.46 3.36012L357.64 10.5301V20.6701H367.78L374.95 27.8401L382.12 20.6701H392.26V10.5301L399.44 3.36012L392.26 -3.81989V-13.9999H382.12L375 -21.1299L367.78 -13.9999H357.64V-3.81989ZM365.64 -0.499878V-5.99988H371.1L374.95 -9.84988L378.8 -5.99988H384.26V-0.539871L388.12 3.32013L384.26 7.17012V12.6301H378.8L375 16.5201L371.15 12.6701H365.69V7.21013L361.83 3.36012L365.64 -0.499878Z" fill="url(#paint13_radial_382_6237)"/>
<path d="M357.63 109.24H367.77L374.95 116.42L382.12 109.24H392.26V99.0999L399.44 91.9299L392.26 84.7499V74.6099H382.12L375 67.4399L367.82 74.6099H357.63V84.7499L350.46 91.9299L357.63 99.0999V109.24ZM365.63 88.0599V82.6099H371.08L374.95 78.7499L378.8 82.6099H384.26V88.0699L388.12 91.9299L384.26 95.7799V101.24H378.8L375 105.1L371.14 101.24H365.68V95.7799L361.82 91.9299L365.63 88.0599Z" fill="url(#paint14_radial_382_6237)"/>
<path d="M331.43 47.6401L317.43 33.6401L303.43 47.6401L317.43 61.6401L331.43 47.6401ZM314.7 47.6401L317.41 44.9301L320.11 47.6401L317.41 50.3401L314.7 47.6401Z" fill="url(#paint15_radial_382_6237)"/>
<path d="M242.55 -3.81993L235.38 3.36008L242.55 10.5301V20.6701H252.69L259.87 27.8301L267.04 20.6701H277.18V10.5301L284.36 3.36008L277.18 -3.81993V-13.9999H267L259.83 -21.1699L252.69 -13.9999H242.55V-3.81993ZM250.55 -0.509918V-5.99992H256L259.87 -9.85992L263.72 -5.99992H269.18V-0.539917L273.04 3.32008L269.18 7.17007V12.6301H263.72L259.87 16.4801L256 12.6701H250.55V7.21008L246.69 3.36008L250.55 -0.509918Z" fill="white"/>
<path d="M242.55 109.24H252.69L259.87 116.42L267.04 109.24H277.18V99.0999L284.36 91.9299L277.18 84.7499V74.6099H267L259.83 67.4399L252.65 74.6099H242.55V84.7499L235.38 91.9299L242.55 99.0999V109.24ZM250.55 88.0599V82.6099H256L259.87 78.7499L263.72 82.6099H269.18V88.0599L273.04 91.9299L269.18 95.7799V101.24H263.72L259.87 105.1L256 101.24H250.54V95.7799L246.68 91.9299L250.55 88.0599Z" fill="white"/>
<path d="M202.33 61.6499L216.33 47.6499L202.33 33.6499L188.33 47.6499L202.33 61.6499ZM205.03 47.6499L202.33 50.3499L199.62 47.6499L202.33 44.9399L205.03 47.6499Z" fill="url(#paint16_radial_382_6237)"/>
<path d="M127.47 10.5301V20.6701H137.61L144.79 27.8301L151.96 20.6701H162.1V10.5301L169.28 3.36008L162.1 -3.81993V-13.9999H152L144.83 -21.1699L137.61 -13.9999H127.47V-3.85992L120.3 3.32008L127.47 10.5301ZM135.47 -0.469925V-5.99992H140.92L144.79 -9.85992L148.64 -5.99992H154.1V-0.539917L157.96 3.32008L154.1 7.17007V12.6301H148.64L144.79 16.4801L140.92 12.6301H135.47V7.17007L131.61 3.32008L135.47 -0.469925Z" fill="url(#paint17_radial_382_6237)"/>
<path d="M36.8807 20.6701H47.0007V10.5301L54.1807 3.36008L47.0007 -3.81993V-13.9999H36.8807L29.7107 -21.1699L22.5307 -13.9999H12.3907V-3.85992L5.2207 3.32008L12.3907 10.4901V20.6301H22.5307L29.7107 27.7901L36.8807 20.6701ZM25.8807 12.6701H20.3907V7.21008L16.5307 3.36008L20.3907 -0.509918V-5.99992H25.8407L29.7107 -9.85992L33.5607 -5.99992H39.0007V-0.539917L42.8607 3.32008L39.0007 7.21008V12.6701H33.5607L29.7107 16.5201L25.8807 12.6701Z" fill="white"/>
<path d="M127.47 99.0999V109.24H137.61L144.79 116.42L151.96 109.24H162.1V99.0999L169.28 91.9299L162.1 84.7499V74.6099H152L144.83 67.4399L137.65 74.6099H127.47V84.7499L120.3 91.9299L127.47 99.0999ZM135.47 88.0999V82.6499H140.92L144.79 78.7899L148.64 82.6499H154.1V88.0999L157.96 91.9699L154.1 95.8199V101.28H148.64L144.79 105.14L140.93 101.28H135.47V95.8199L131.61 91.9699L135.47 88.0999Z" fill="white"/>
<path d="M36.8807 109.24H47.0007V99.0999L54.1607 91.9299L47.0007 84.7499V74.6099H36.8807L29.7107 67.4399L22.5307 74.6099H12.3907V84.7499L5.2207 91.9299L12.3907 99.0999V109.24H22.5307L29.7107 116.42L36.8807 109.24ZM25.8807 101.24H20.3907V95.7799L16.5307 91.9299L20.3907 88.0599V82.6099H25.8407L29.7107 78.7499L33.5607 82.6099H39.0007V88.0599L42.8507 91.9299L39.0007 95.7799V101.24H33.5607L29.7107 105.1L25.8807 101.24Z" fill="white"/>
<path d="M87.25 61.6499L101.25 47.6499L87.25 33.6499L73.25 47.6499L87.25 61.6499ZM89.95 47.6499L87.25 50.3499L84.54 47.6499L87.25 44.9399L89.95 47.6499Z" fill="white"/>
</g>
<defs>
<radialGradient id="paint0_radial_382_6237" cx="0" cy="0" r="1" gradientUnits="userSpaceOnUse" gradientTransform="translate(435.82 42.31) scale(469.82 469.82)">
<stop offset="0.11" stop-color="white"/>
<stop offset="0.74" stop-color="#EFEAE2"/>
<stop offset="1" stop-color="#E8E0D5"/>
</radialGradient>
<radialGradient id="paint1_radial_382_6237" cx="0" cy="0" r="1" gradientUnits="userSpaceOnUse" gradientTransform="translate(435.82 42.3101) scale(469.82 469.82)">
<stop offset="0.11" stop-color="white"/>
<stop offset="0.74" stop-color="#EFEAE2"/>
<stop offset="1" stop-color="#E8E0D5"/>
</radialGradient>
<radialGradient id="paint2_radial_382_6237" cx="0" cy="0" r="1" gradientUnits="userSpaceOnUse" gradientTransform="translate(435.82 42.3099) scale(469.82 469.82)">
<stop offset="0.11" stop-color="white"/>
<stop offset="0.74" stop-color="#EFEAE2"/>
<stop offset="1" stop-color="#E8E0D5"/>
</radialGradient>
<radialGradient id="paint3_radial_382_6237" cx="0" cy="0" r="1" gradientUnits="userSpaceOnUse" gradientTransform="translate(435.82 42.3101) scale(469.82)">
<stop offset="0.11" stop-color="white"/>
<stop offset="0.74" stop-color="#EFEAE2"/>
<stop offset="1" stop-color="#E8E0D5"/>
</radialGradient>
<radialGradient id="paint4_radial_382_6237" cx="0" cy="0" r="1" gradientUnits="userSpaceOnUse" gradientTransform="translate(435.82 42.3101) scale(469.82 469.82)">
<stop offset="0.11" stop-color="white"/>
<stop offset="0.74" stop-color="#EFEAE2"/>
<stop offset="1" stop-color="#E8E0D5"/>
</radialGradient>
<radialGradient id="paint5_radial_382_6237" cx="0" cy="0" r="1" gradientUnits="userSpaceOnUse" gradientTransform="translate(435.82 42.3099) scale(469.82 469.82)">
<stop offset="0.11" stop-color="white"/>
<stop offset="0.74" stop-color="#EFEAE2"/>
<stop offset="1" stop-color="#E8E0D5"/>
</radialGradient>
<radialGradient id="paint6_radial_382_6237" cx="0" cy="0" r="1" gradientUnits="userSpaceOnUse" gradientTransform="translate(435.82 42.3101) scale(469.81)">
<stop offset="0.11" stop-color="white"/>
<stop offset="0.74" stop-color="#EFEAE2"/>
<stop offset="1" stop-color="#E8E0D5"/>
</radialGradient>
<radialGradient id="paint7_radial_382_6237" cx="0" cy="0" r="1" gradientUnits="userSpaceOnUse" gradientTransform="translate(435.82 42.3101) scale(469.82 469.82)">
<stop offset="0.11" stop-color="white"/>
<stop offset="0.74" stop-color="#EFEAE2"/>
<stop offset="1" stop-color="#E8E0D5"/>
</radialGradient>
<radialGradient id="paint8_radial_382_6237" cx="0" cy="0" r="1" gradientUnits="userSpaceOnUse" gradientTransform="translate(435.82 42.3099) scale(469.82 469.82)">
<stop offset="0.11" stop-color="white"/>
<stop offset="0.74" stop-color="#EFEAE2"/>
<stop offset="1" stop-color="#E8E0D5"/>
</radialGradient>
<radialGradient id="paint9_radial_382_6237" cx="0" cy="0" r="1" gradientUnits="userSpaceOnUse" gradientTransform="translate(435.82 42.3101) scale(469.82)">
<stop offset="0.11" stop-color="white"/>
<stop offset="0.74" stop-color="#EFEAE2"/>
<stop offset="1" stop-color="#E8E0D5"/>
</radialGradient>
<radialGradient id="paint10_radial_382_6237" cx="0" cy="0" r="1" gradientUnits="userSpaceOnUse" gradientTransform="translate(435.82 42.3101) scale(469.81 469.81)">
<stop offset="0.11" stop-color="white"/>
<stop offset="0.74" stop-color="#EFEAE2"/>
<stop offset="1" stop-color="#E8E0D5"/>
</radialGradient>
<radialGradient id="paint11_radial_382_6237" cx="0" cy="0" r="1" gradientUnits="userSpaceOnUse" gradientTransform="translate(435.82 42.3099) scale(469.82)">
<stop offset="0.11" stop-color="white"/>
<stop offset="0.74" stop-color="#EFEAE2"/>
<stop offset="1" stop-color="#E8E0D5"/>
</radialGradient>
<radialGradient id="paint12_radial_382_6237" cx="0" cy="0" r="1" gradientUnits="userSpaceOnUse" gradientTransform="translate(435.82 42.3101) scale(469.82)">
<stop offset="0.11" stop-color="white"/>
<stop offset="0.74" stop-color="#EFEAE2"/>
<stop offset="1" stop-color="#E8E0D5"/>
</radialGradient>
<radialGradient id="paint13_radial_382_6237" cx="0" cy="0" r="1" gradientUnits="userSpaceOnUse" gradientTransform="translate(435.82 42.3101) scale(469.82 469.82)">
<stop offset="0.11" stop-color="white"/>
<stop offset="0.74" stop-color="#EFEAE2"/>
<stop offset="1" stop-color="#E8E0D5"/>
</radialGradient>
<radialGradient id="paint14_radial_382_6237" cx="0" cy="0" r="1" gradientUnits="userSpaceOnUse" gradientTransform="translate(435.82 42.3099) scale(469.82)">
<stop offset="0.11" stop-color="white"/>
<stop offset="0.74" stop-color="#EFEAE2"/>
<stop offset="1" stop-color="#E8E0D5"/>
</radialGradient>
<radialGradient id="paint15_radial_382_6237" cx="0" cy="0" r="1" gradientUnits="userSpaceOnUse" gradientTransform="translate(435.82 42.3101) scale(469.82)">
<stop offset="0.11" stop-color="white"/>
<stop offset="0.74" stop-color="#EFEAE2"/>
<stop offset="1" stop-color="#E8E0D5"/>
</radialGradient>
<radialGradient id="paint16_radial_382_6237" cx="0" cy="0" r="1" gradientUnits="userSpaceOnUse" gradientTransform="translate(435.82 42.3099) scale(469.82)">
<stop offset="0.11" stop-color="white"/>
<stop offset="0.74" stop-color="#EFEAE2"/>
<stop offset="1" stop-color="#E8E0D5"/>
</radialGradient>
<radialGradient id="paint17_radial_382_6237" cx="0" cy="0" r="1" gradientUnits="userSpaceOnUse" gradientTransform="translate(435.82 42.3101) scale(469.82 469.82)">
<stop offset="0.11" stop-color="white"/>
<stop offset="0.74" stop-color="#EFEAE2"/>
<stop offset="1" stop-color="#E8E0D5"/>
</radialGradient>
<clipPath id="clip0_382_6237">
<rect width="881" height="84" fill="white"/>
</clipPath>
</defs>
</svg>
