<svg width="49" height="49" viewBox="0 0 49 49" fill="none" xmlns="http://www.w3.org/2000/svg">
<path d="M44.2431 12.4148V17.2287C44.2431 20.3717 42.2539 22.361 39.1108 22.361H32.3076V8.45615C32.3076 6.24808 34.1178 4.45776 36.3259 4.45776C38.4942 4.47766 40.4834 5.35292 41.9157 6.78518C43.3479 8.23733 44.2431 10.2266 44.2431 12.4148Z" stroke="#69A1EF" stroke-width="3" stroke-miterlimit="10" stroke-linecap="round" stroke-linejoin="round"/>
<path d="M4.45801 14.404V42.2535C4.45801 43.9045 6.3279 44.8395 7.6408 43.8449L11.0424 41.2986C11.8381 40.7018 12.9521 40.7814 13.6682 41.4976L16.9704 44.8196C17.7462 45.5954 19.0193 45.5954 19.7951 44.8196L23.137 41.4777C23.8333 40.7814 24.9473 40.7018 25.7231 41.2986L29.1247 43.8449C30.4376 44.8196 32.3075 43.8846 32.3075 42.2535V8.43626C32.3075 6.24809 34.0978 4.45776 36.286 4.45776H14.4042H12.415C6.44726 4.45776 4.45801 8.01852 4.45801 12.4148V14.404Z" stroke="#69A1EF" stroke-width="3" stroke-miterlimit="10" stroke-linecap="round" stroke-linejoin="round"/>
<path opacity="0.6" d="M18.3828 26.3594H24.3506" stroke="#69A1EF" stroke-width="3" stroke-linecap="round" stroke-linejoin="round"/>
<path opacity="0.6" d="M18.3828 18.4023H24.3506" stroke="#69A1EF" stroke-width="3" stroke-linecap="round" stroke-linejoin="round"/>
<path opacity="0.6" d="M12.4072 26.3394H12.4251" stroke="#69A1EF" stroke-width="3" stroke-linecap="round" stroke-linejoin="round"/>
</svg>
