<svg width="49" height="49" viewBox="0 0 49 49" fill="none" xmlns="http://www.w3.org/2000/svg">
<path d="M21.3465 4.91538L11.4202 8.63526C9.13258 9.49064 7.2627 12.196 7.2627 14.6428V29.4229C7.2627 31.7702 8.81433 34.8535 10.7041 36.2659L19.2579 42.6514C22.0627 44.76 26.6777 44.76 29.4826 42.6514L38.0364 36.2659C39.9261 34.8535 41.4777 31.7702 41.4777 29.4229V14.6428C41.4777 12.196 39.6078 9.49064 37.3202 8.63526L27.3939 4.91538C25.703 4.29871 22.9976 4.29871 21.3465 4.91538Z" stroke="#69A1EF" stroke-width="3" stroke-linecap="round" stroke-linejoin="round"/>
<path opacity="0.6" d="M24.3499 22.2019C24.2704 22.2019 24.1709 22.2019 24.0913 22.2019C22.2214 22.1422 20.7295 20.5906 20.7295 18.7008C20.7295 16.7712 22.301 15.1997 24.2306 15.1997C26.1602 15.1997 27.7317 16.7712 27.7317 18.7008C27.7118 20.6105 26.2198 22.1422 24.3499 22.2019Z" stroke="#69A1EF" stroke-width="3" stroke-linecap="round" stroke-linejoin="round"/>
<path opacity="0.6" d="M20.3922 27.7717C18.4825 29.0448 18.4825 31.1335 20.3922 32.4066C22.5605 33.8588 26.1213 33.8588 28.2895 32.4066C30.1992 31.1335 30.1992 29.0448 28.2895 27.7717C26.1411 26.3196 22.5804 26.3196 20.3922 27.7717Z" stroke="#69A1EF" stroke-width="3" stroke-linecap="round" stroke-linejoin="round"/>
</svg>
