<svg width="42" height="42" viewBox="0 0 42 42" fill="none" xmlns="http://www.w3.org/2000/svg">
<path d="M35.6299 22.2775C34.9824 22.2775 34.4399 21.7875 34.3699 21.14C33.9499 17.29 31.8849 13.825 28.6999 11.62C28.1224 11.2175 27.9824 10.43 28.3849 9.85251C28.7874 9.27501 29.5749 9.135 30.1524 9.5375C33.9499 12.18 36.3999 16.31 36.9074 20.8775C36.9774 21.5775 36.4699 22.2075 35.7699 22.2775C35.7174 22.2775 35.6824 22.2775 35.6299 22.2775Z" fill="#F7F9FC"/>
<path d="M6.54575 22.3654C6.51075 22.3654 6.45825 22.3654 6.42325 22.3654C5.72325 22.2954 5.21575 21.6654 5.28575 20.9654C5.75825 16.3979 8.17325 12.2679 11.9357 9.60785C12.4957 9.20535 13.3007 9.34535 13.7032 9.90535C14.1057 10.4829 13.9657 11.2704 13.4057 11.6729C10.2557 13.9129 8.20825 17.3779 7.82325 21.2104C7.75325 21.8754 7.19325 22.3654 6.54575 22.3654Z" fill="#F7F9FC"/>
<path d="M27.9821 36.9247C25.8296 37.9572 23.5196 38.4822 21.1046 38.4822C18.5846 38.4822 16.1871 37.9222 13.9471 36.7847C13.3171 36.4872 13.0721 35.7172 13.3871 35.0872C13.6846 34.4572 14.4546 34.2122 15.0846 34.5097C16.1871 35.0697 17.3596 35.4547 18.5496 35.6822C20.1596 35.9972 21.8046 36.0147 23.4146 35.7347C24.6046 35.5247 25.7771 35.1572 26.8621 34.6322C27.5096 34.3347 28.2796 34.5797 28.5596 35.2272C28.8746 35.8572 28.6296 36.6272 27.9821 36.9247Z" fill="#F7F9FC"/>
<path d="M21.0883 3.51709C18.3758 3.51709 16.1533 5.72209 16.1533 8.45209C16.1533 11.1821 18.3583 13.3871 21.0883 13.3871C23.8183 13.3871 26.0233 11.1821 26.0233 8.45209C26.0233 5.72209 23.8183 3.51709 21.0883 3.51709Z" fill="#F7F9FC"/>
<path d="M8.83832 24.2727C6.12582 24.2727 3.90332 26.4777 3.90332 29.2077C3.90332 31.9377 6.10832 34.1427 8.83832 34.1427C11.5683 34.1427 13.7733 31.9377 13.7733 29.2077C13.7733 26.4777 11.5508 24.2727 8.83832 24.2727Z" fill="#F7F9FC"/>
<path d="M33.1625 24.2727C30.45 24.2727 28.2275 26.4777 28.2275 29.2077C28.2275 31.9377 30.4325 34.1427 33.1625 34.1427C35.8925 34.1427 38.0975 31.9377 38.0975 29.2077C38.0975 26.4777 35.8925 24.2727 33.1625 24.2727Z" fill="#F7F9FC"/>
</svg>
