<svg width="24" height="24" viewBox="0 0 24 24" fill="none" xmlns="http://www.w3.org/2000/svg">
<path d="M16.528 15.7807C17.1852 15.3491 18.0484 15.82 18.0484 16.6047V17.87C18.0484 19.1158 17.0773 20.4498 15.9101 20.8421L12.781 21.8819C12.2317 22.0683 11.3391 22.0683 10.7996 21.8819L7.67057 20.8421C6.4935 20.4498 5.53223 19.1158 5.53223 17.87V16.5949C5.53223 15.82 6.39541 15.3491 7.0428 15.7709L9.06344 17.0853C9.83834 17.6052 10.8192 17.8602 11.8001 17.8602C12.781 17.8602 13.7619 17.6052 14.5368 17.0853L16.528 15.7807Z" fill="#69A1EF"/>
<path d="M19.6168 6.77609L13.7413 2.92119C12.6819 2.22476 10.9359 2.22476 9.87657 2.92119L3.9716 6.77609C2.07848 8.00221 2.07848 10.7781 3.9716 12.0141L5.54103 13.0342L9.87657 15.8592C10.9359 16.5556 12.6819 16.5556 13.7413 15.8592L18.0474 13.0342L19.3912 12.1514V15.1529C19.3912 15.5551 19.7247 15.8886 20.1269 15.8886C20.5291 15.8886 20.8626 15.5551 20.8626 15.1529V10.3269C21.2549 9.06157 20.8527 7.59023 19.6168 6.77609Z" fill="#69A1EF"/>
</svg>
