<svg width="16" height="16" viewBox="0 0 16 16" fill="none" xmlns="http://www.w3.org/2000/svg">
<path d="M12.1825 1.20257C12.1825 2.52589 11.1005 3.60784 9.77719 3.60784H5.86551C4.5422 3.60784 3.46025 2.52589 3.46025 1.20257C3.46025 0.736501 2.96089 0.445206 2.54475 0.661597C1.37125 1.2858 0.572266 2.52589 0.572266 3.94907V11.7807C0.572266 13.8281 2.24513 15.501 4.29252 15.501H11.3502C13.3976 15.501 15.0704 13.8281 15.0704 11.7807V3.94907C15.0704 2.52589 14.2715 1.2858 13.098 0.661597C12.6818 0.445206 12.1825 0.736501 12.1825 1.20257ZM10.6011 7.78584L7.27205 11.1149C7.14721 11.2398 6.98908 11.298 6.83095 11.298C6.67282 11.298 6.51469 11.2398 6.38984 11.1149L5.14144 9.86652C4.90008 9.62516 4.90008 9.22567 5.14144 8.98431C5.3828 8.74296 5.78229 8.74296 6.02364 8.98431L6.83095 9.79162L9.71893 6.90364C9.96029 6.66228 10.3598 6.66228 10.6011 6.90364C10.8425 7.14499 10.8425 7.54448 10.6011 7.78584Z" fill="#69A1EF"/>
</svg>
