<svg width="49" height="49" viewBox="0 0 49 49" fill="none" xmlns="http://www.w3.org/2000/svg">
<path opacity="0.4" d="M26.6998 6.94434H14.7644C7.96113 6.94434 5.31543 9.59003 5.31543 16.3933V32.3072C5.31543 36.8825 7.80199 41.7562 14.7644 41.7562H26.6998C33.5031 41.7562 36.1488 39.1105 36.1488 32.3072V16.3933C36.1488 9.59003 33.5031 6.94434 26.6998 6.94434Z" fill="#69A1EF"/>
<path d="M23.7163 23.117C25.7818 23.117 27.4561 21.4427 27.4561 19.3772C27.4561 17.3118 25.7818 15.6375 23.7163 15.6375C21.6509 15.6375 19.9766 17.3118 19.9766 19.3772C19.9766 21.4427 21.6509 23.117 23.7163 23.117Z" fill="#69A1EF"/>
<path d="M43.9082 12.7531C43.0926 12.3353 41.3819 11.8579 39.0544 13.4891L36.1104 15.5579C36.1302 15.8364 36.1501 16.095 36.1501 16.3934V32.3074C36.1501 32.6058 36.1104 32.8644 36.1104 33.1429L39.0544 35.2117C40.2878 36.0869 41.362 36.3654 42.2173 36.3654C42.9534 36.3654 43.5302 36.1665 43.9082 35.9676C44.7238 35.5499 46.0964 34.416 46.0964 31.5714V17.1493C46.0964 14.3047 44.7238 13.1708 43.9082 12.7531Z" fill="#69A1EF"/>
</svg>
