<svg width="43" height="43" viewBox="0 0 43 43" fill="none" xmlns="http://www.w3.org/2000/svg">
<g clip-path="url(#clip0_382_6616)">
<path d="M17.652 30.4795H13.0029C12.3166 30.4817 11.6367 30.3476 11.0027 30.085C10.3686 29.8223 9.79307 29.4364 9.30935 28.9496L0.336605 19.9768C0.286127 20.5721 0.246094 21.1691 0.246094 21.7766C0.253738 27.011 2.22504 32.0521 5.77028 35.9032C9.31552 39.7543 14.1766 42.1351 19.3926 42.5749V32.2201C19.3926 31.7585 19.2092 31.3158 18.8828 30.9893C18.5564 30.6629 18.1136 30.4795 17.652 30.4795Z" fill="#69A1EF"/>
<path opacity="0.6" d="M35.8164 6.94312L32.7008 10.0588C31.8833 10.8718 30.7781 11.3296 29.6252 11.3329H27.2249C26.9941 11.3329 26.7727 11.4246 26.6095 11.5878C26.4463 11.751 26.3546 11.9724 26.3546 12.2032V13.9438C26.3546 15.0979 25.8961 16.2047 25.0801 17.0207C24.264 17.8368 23.1572 18.2953 22.0031 18.2953C21.7723 18.2953 21.5509 18.3869 21.3877 18.5502C21.2245 18.7134 21.1328 18.9347 21.1328 19.1655V20.0358C21.1328 20.4975 21.3162 20.9402 21.6426 21.2666C21.969 21.5931 22.4118 21.7764 22.8734 21.7764H28.0952C29.4801 21.7764 30.8083 22.3266 31.7875 23.3059C32.7668 24.2851 33.317 25.6133 33.317 26.9982V28.6727C33.317 28.903 33.4084 29.124 33.5711 29.2871L38.1401 33.8579C41.0205 29.8296 42.3689 24.9057 41.943 19.9719C41.517 15.0381 39.3446 10.4182 35.8164 6.94312Z" fill="#69A1EF"/>
<path d="M29.836 28.6726V26.9982C29.836 26.5365 29.6526 26.0938 29.3262 25.7674C28.9997 25.441 28.557 25.2576 28.0954 25.2576H22.8736C21.4887 25.2576 20.1605 24.7074 19.1813 23.7282C18.202 22.7489 17.6518 21.4207 17.6518 20.0358V19.1655C17.6518 18.0114 18.1103 16.9046 18.9263 16.0886C19.7424 15.2725 20.8492 14.814 22.0033 14.814C22.2341 14.814 22.4555 14.7223 22.6187 14.5591C22.7819 14.3959 22.8736 14.1746 22.8736 13.9437V12.2032C22.8736 11.0491 23.3321 9.94226 24.1481 9.12619C24.9642 8.31013 26.071 7.85168 27.2251 7.85168H29.6254C29.8555 7.85032 30.0759 7.75913 30.2398 7.59755L33.1309 4.70643C30.4242 2.79468 27.3006 1.55591 24.0193 1.09289C20.738 0.629862 17.3936 0.955929 14.2636 2.04404C11.1335 3.13214 8.30803 4.95093 6.02153 7.34949C3.73503 9.74806 2.05342 12.6573 1.11621 15.8358L11.7686 26.4882C11.9306 26.6502 12.123 26.7787 12.3348 26.8662C12.5466 26.9537 12.7736 26.9986 13.0027 26.9982H17.6518C19.0367 26.9982 20.3649 27.5483 21.3442 28.5276C22.3235 29.5069 22.8736 30.8351 22.8736 32.22V42.5747C27.7938 42.1698 32.41 40.0298 35.8984 36.5366L31.1101 31.7483C30.2971 30.9307 29.8392 29.8256 29.836 28.6726Z" fill="#69A1EF"/>
</g>
<defs>
<clipPath id="clip0_382_6616">
<rect width="41.7742" height="41.7742" fill="white" transform="translate(0.246094 0.889404)"/>
</clipPath>
</defs>
</svg>
