<svg width="19" height="19" viewBox="0 0 19 19" fill="none" xmlns="http://www.w3.org/2000/svg">
<path opacity="0.4" d="M13.538 1.58331H10.213C7.4818 1.58331 6.37346 2.6679 6.3418 5.34373H8.78805C12.113 5.34373 13.6568 6.88748 13.6568 10.2125V12.6587C16.3326 12.6271 17.4172 11.5187 17.4172 8.78748V5.46248C17.4172 2.69165 16.3089 1.58331 13.538 1.58331Z" fill="#FAFBFC"/>
<path d="M8.78815 6.33331H5.46315C2.69232 6.33331 1.58398 7.44165 1.58398 10.2125V13.5375C1.58398 16.3083 2.69232 17.4166 5.46315 17.4166H8.78815C11.559 17.4166 12.6673 16.3083 12.6673 13.5375V10.2125C12.6673 7.44165 11.559 6.33331 8.78815 6.33331ZM9.73023 10.8062L6.79315 13.7433C6.68232 13.8541 6.53982 13.9096 6.3894 13.9096C6.23898 13.9096 6.09648 13.8541 5.98565 13.7433L4.51315 12.2708C4.29148 12.0491 4.29148 11.6929 4.51315 11.4712C4.73482 11.2496 5.09107 11.2496 5.31273 11.4712L6.38148 12.54L8.92273 9.99873C9.1444 9.77706 9.50065 9.77706 9.72232 9.99873C9.94398 10.2204 9.9519 10.5846 9.73023 10.8062Z" fill="#FAFBFC"/>
</svg>
