<svg width="43" height="42" viewBox="0 0 43 42" fill="none" xmlns="http://www.w3.org/2000/svg">
<path d="M39.378 11.83L33.4805 35.5076C33.0605 37.2751 31.4855 38.5 29.6655 38.5H6.67047C4.02797 38.5 2.138 35.9099 2.9255 33.3724L10.293 9.71259C10.8005 8.06759 12.323 6.92993 14.038 6.92993H35.563C37.2255 6.92993 38.608 7.94494 39.1855 9.34494C39.518 10.0974 39.588 10.955 39.378 11.83Z" stroke="#114DA1" stroke-width="3.5" stroke-miterlimit="10"/>
<path d="M29 38.5H37.365C39.6225 38.5 41.39 36.5925 41.2325 34.335L39.5 10.5" stroke="#114DA1" stroke-width="3.5" stroke-miterlimit="10" stroke-linecap="round" stroke-linejoin="round"/>
<path d="M17.9395 11.165L19.7595 3.6051" stroke="#114DA1" stroke-width="3.5" stroke-miterlimit="10" stroke-linecap="round" stroke-linejoin="round"/>
<path d="M29.665 11.1826L31.31 3.58765" stroke="#114DA1" stroke-width="3.5" stroke-miterlimit="10" stroke-linecap="round" stroke-linejoin="round"/>
<path d="M14.4756 21H28.4756" stroke="#114DA1" stroke-width="3.5" stroke-miterlimit="10" stroke-linecap="round" stroke-linejoin="round"/>
<path d="M12.7256 28H26.7256" stroke="#114DA1" stroke-width="3.5" stroke-miterlimit="10" stroke-linecap="round" stroke-linejoin="round"/>
</svg>
